<?xml version="1.0" encoding="iso-8859-1"?>
<!-- Generator: Adobe Illustrator 18.1.1, SVG Export Plug-In . SVG Version: 6.00 Build 0)  -->
<svg version="1.1" id="Capa_1" xmlns="http://www.w3.org/2000/svg" xmlns:xlink="http://www.w3.org/1999/xlink" x="0px" y="0px"
	 viewBox="0 0 16 16" style="enable-background:new 0 0 16 16;" xml:space="preserve">
<g>
	<path style="fill:#03b603;" d="M11.5,9c0,1.5-1.5,3-3,3h-1c-1.5,0-3-1.5-3-3V6h-1v3c0,2,2,4,4,4v2h-3v1h7v-1h-3v-2c2,0,4-2,4-4V6
		h-1V9z"/>
	<path style="fill:#03b603;" d="M8.495,11c1.108,0,2.005-0.9,2.005-1.992V1.992C10.5,0.892,9.606,0,8.495,0h-0.99
		C6.397,0,5.5,0.9,5.5,1.992v7.016C5.5,10.108,6.394,11,7.505,11H8.495z"/>
</g>
<g>
</g>
<g>
</g>
<g>
</g>
<g>
</g>
<g>
</g>
<g>
</g>
<g>
</g>
<g>
</g>
<g>
</g>
<g>
</g>
<g>
</g>
<g>
</g>
<g>
</g>
<g>
</g>
<g>
</g>
</svg>
